<svg width="101" height="20" viewBox="0 0 101 20" fill="none" xmlns="http://www.w3.org/2000/svg">
<path d="M13.536 3.808C13.152 3.728 12.784 3.624 12.432 3.496C12.096 3.368 11.792 3.24 11.52 3.112V2.2H17.616V3.112C17.424 3.24 17.168 3.368 16.848 3.496C16.544 3.624 16.224 3.728 15.888 3.808L10.368 19L7.992 19.288L1.8 3.808C1.48 3.728 1.16 3.632 0.84 3.52C0.52 3.392 0.24 3.256 0 3.112V2.2H7.992V3.112C7.72 3.24 7.416 3.368 7.08 3.496C6.744 3.624 6.392 3.728 6.024 3.808L9.384 13.264L9.936 15.52H9.984L10.512 13.216L13.536 3.808ZM24.993 19H18.369V18.064C18.609 17.936 18.857 17.832 19.113 17.752C19.369 17.656 19.649 17.568 19.953 17.488V8.704L18.369 8.512V7.576C18.609 7.48 18.905 7.384 19.257 7.288C19.625 7.192 20.009 7.112 20.409 7.048C20.809 6.968 21.201 6.904 21.585 6.856C21.969 6.792 22.305 6.744 22.593 6.712H23.409V17.488C23.729 17.568 24.017 17.656 24.273 17.752C24.529 17.832 24.769 17.936 24.993 18.064V19ZM19.545 3.064C19.545 2.504 19.737 2.064 20.121 1.744C20.505 1.424 21.001 1.264 21.609 1.264C22.217 1.264 22.713 1.424 23.097 1.744C23.481 2.064 23.673 2.504 23.673 3.064C23.673 3.608 23.481 4.04 23.097 4.36C22.713 4.68 22.217 4.84 21.609 4.84C21.001 4.84 20.505 4.68 20.121 4.36C19.737 4.04 19.545 3.608 19.545 3.064ZM34.5218 16.624C34.4418 16.976 34.2978 17.312 34.0898 17.632C33.8818 17.952 33.6338 18.24 33.3458 18.496C33.0578 18.736 32.7298 18.928 32.3618 19.072C31.9938 19.216 31.6018 19.288 31.1858 19.288C29.6018 19.288 28.3938 18.792 27.5618 17.8C26.7458 16.792 26.3378 15.256 26.3378 13.192C26.3378 12.136 26.4818 11.216 26.7698 10.432C27.0578 9.632 27.4578 8.96 27.9698 8.416C28.4978 7.872 29.1298 7.464 29.8658 7.192C30.6018 6.92 31.4178 6.784 32.3138 6.784C32.6018 6.784 32.8418 6.792 33.0338 6.808C33.2418 6.824 33.4258 6.848 33.5858 6.88C33.7618 6.896 33.9218 6.936 34.0658 7C34.2258 7.048 34.4018 7.104 34.5938 7.168V2.944L32.7698 2.752V1.816C32.9938 1.72 33.2978 1.632 33.6818 1.552C34.0818 1.472 34.4978 1.4 34.9298 1.336C35.3618 1.256 35.7858 1.184 36.2018 1.12C36.6178 1.056 36.9618 1 37.2338 0.951999H38.0498V17.296L39.6338 17.488V18.328C39.4098 18.44 39.1218 18.544 38.7698 18.64C38.4178 18.736 38.0498 18.824 37.6658 18.904C37.2818 18.984 36.9058 19.048 36.5378 19.096C36.1858 19.16 35.8898 19.208 35.6498 19.24H34.8338L34.6178 16.624H34.5218ZM32.3378 17.368C32.8978 17.368 33.3698 17.192 33.7538 16.84C34.1378 16.488 34.4178 15.888 34.5938 15.04V8.584C34.3858 8.456 34.1218 8.352 33.8018 8.272C33.4978 8.192 33.1138 8.152 32.6497 8.152C31.7218 8.152 31.0578 8.576 30.6578 9.424C30.2578 10.256 30.0578 11.472 30.0578 13.072C30.0578 14.368 30.2338 15.408 30.5858 16.192C30.9378 16.976 31.5218 17.368 32.3378 17.368ZM52.9209 13.96H53.9049C53.9689 14.216 54.0249 14.528 54.0729 14.896C54.1369 15.248 54.1849 15.632 54.2169 16.048C54.2649 16.448 54.2969 16.848 54.3129 17.248C54.3289 17.648 54.3369 18.008 54.3369 18.328C53.7769 18.68 53.0729 18.928 52.2249 19.072C51.3929 19.216 50.5369 19.288 49.6569 19.288C48.3289 19.288 47.1209 19.128 46.0329 18.808C44.9609 18.472 44.0409 17.952 43.2729 17.248C42.5209 16.528 41.9369 15.624 41.5209 14.536C41.1049 13.432 40.8969 12.112 40.8969 10.576C40.8969 9.056 41.1209 7.752 41.5689 6.664C42.0329 5.56 42.6489 4.656 43.4169 3.952C44.1849 3.248 45.0729 2.736 46.0809 2.416C47.1049 2.08 48.1769 1.912 49.2969 1.912C50.3529 1.912 51.3049 1.992 52.1529 2.152C53.0169 2.296 53.7209 2.496 54.2649 2.752C54.2649 3.008 54.2489 3.336 54.2169 3.736C54.2009 4.136 54.1609 4.56 54.0969 5.008C54.0489 5.44 53.9849 5.872 53.9049 6.304C53.8409 6.72 53.7769 7.072 53.7129 7.36H52.7049L51.3849 3.736C51.2409 3.656 51.0089 3.592 50.6889 3.544C50.3689 3.496 50.0409 3.472 49.7049 3.472C49.0489 3.472 48.4329 3.608 47.8569 3.88C47.2809 4.136 46.7689 4.552 46.3209 5.128C45.8729 5.704 45.5209 6.448 45.2649 7.36C45.0089 8.256 44.8809 9.336 44.8809 10.6C44.8809 12.888 45.3369 14.648 46.2489 15.88C47.1609 17.112 48.4009 17.728 49.9689 17.728C50.4169 17.728 50.7929 17.696 51.0969 17.632C51.4169 17.552 51.6329 17.448 51.7449 17.32L52.9209 13.96ZM62.5772 9.76C62.3852 9.856 62.1612 10.016 61.9052 10.24C61.6492 10.464 61.4172 10.832 61.2092 11.344V17.488C61.5292 17.52 61.8492 17.584 62.1692 17.68C62.4892 17.76 62.8092 17.888 63.1292 18.064V19H56.1692V18.064C56.4572 17.904 56.7292 17.784 56.9852 17.704C57.2412 17.624 57.4972 17.552 57.7532 17.488V8.704L56.1692 8.512V7.576C56.4252 7.464 56.7372 7.36 57.1052 7.264C57.4892 7.168 57.8812 7.088 58.2812 7.024C58.6812 6.944 59.0652 6.88 59.4332 6.832C59.8172 6.784 60.1372 6.744 60.3932 6.712H61.2092V9.904H61.3052C61.4332 9.552 61.6172 9.184 61.8572 8.8C62.1132 8.416 62.4092 8.064 62.7452 7.744C63.0812 7.424 63.4492 7.168 63.8492 6.976C64.2492 6.784 64.6652 6.696 65.0972 6.712C65.2732 6.936 65.4252 7.256 65.5532 7.672C65.6812 8.072 65.7852 8.456 65.8652 8.824V9.76H62.5772ZM77.2331 15.52C77.2331 15.872 77.2331 16.176 77.2331 16.432C77.2491 16.688 77.2731 16.96 77.3051 17.248L78.9611 17.488V18.328C78.7691 18.424 78.5051 18.52 78.1691 18.616C77.8491 18.712 77.5051 18.808 77.1371 18.904C76.7851 18.984 76.4331 19.048 76.0811 19.096C75.7291 19.16 75.4171 19.208 75.1451 19.24H74.3291C74.1691 18.872 74.0731 18.504 74.0411 18.136C74.0091 17.768 73.9851 17.32 73.9691 16.792H73.8491C73.7691 17.112 73.6331 17.424 73.4411 17.728C73.2491 18.016 73.0011 18.28 72.6971 18.52C72.4091 18.744 72.0651 18.928 71.6651 19.072C71.2651 19.216 70.8171 19.288 70.3211 19.288C69.7931 19.288 69.3051 19.208 68.8571 19.048C68.4091 18.888 68.0171 18.664 67.6811 18.376C67.3451 18.088 67.0811 17.744 66.8891 17.344C66.6971 16.928 66.6011 16.464 66.6011 15.952C66.6011 15.232 66.7371 14.64 67.0091 14.176C67.2811 13.712 67.7051 13.336 68.2811 13.048C68.8731 12.744 69.6251 12.52 70.5371 12.376C71.4651 12.232 72.5851 12.128 73.8971 12.064C74.0251 10.688 73.9691 9.68 73.7291 9.04C73.4891 8.4 72.9691 8.08 72.1691 8.08C71.6731 8.08 71.2171 8.16 70.8011 8.32L69.6731 11.2H68.6171C68.4891 11.008 68.3611 10.792 68.2331 10.552C68.1211 10.296 68.0091 10.032 67.8971 9.76C67.8011 9.472 67.7131 9.184 67.6331 8.896C67.5691 8.608 67.5211 8.328 67.4891 8.056C68.0971 7.64 68.8811 7.312 69.8411 7.072C70.8011 6.832 71.8171 6.712 72.8891 6.712C73.8011 6.712 74.5451 6.816 75.1211 7.024C75.6971 7.216 76.1451 7.488 76.4651 7.84C76.8011 8.176 77.0331 8.576 77.1611 9.04C77.2891 9.504 77.3531 10 77.3531 10.528C77.3531 11.488 77.3291 12.36 77.2811 13.144C77.2491 13.912 77.2331 14.704 77.2331 15.52ZM71.8331 17.368C72.1691 17.368 72.4571 17.304 72.6971 17.176C72.9371 17.048 73.1371 16.896 73.2971 16.72C73.4731 16.544 73.6011 16.352 73.6811 16.144C73.7771 15.936 73.8491 15.752 73.8971 15.592V13.192C73.1451 13.208 72.5291 13.256 72.0491 13.336C71.5691 13.416 71.1931 13.552 70.9211 13.744C70.6491 13.92 70.4571 14.152 70.3451 14.44C70.2491 14.712 70.2011 15.048 70.2011 15.448C70.2011 16.056 70.3451 16.528 70.6331 16.864C70.9211 17.2 71.3211 17.368 71.8331 17.368ZM79.5045 7.576C80.1125 7.192 80.7525 6.92 81.4245 6.76V4.816C81.5525 4.72 81.8645 4.584 82.3605 4.408C82.8725 4.216 83.4405 4.064 84.0645 3.952H84.8805V7H88.0485V8.512H84.8805V14.728C84.8805 15.72 85.0005 16.408 85.2405 16.792C85.4965 17.176 85.9125 17.368 86.4885 17.368C86.7765 17.368 87.0965 17.352 87.4485 17.32C87.8165 17.272 88.1525 17.192 88.4565 17.08L88.6245 17.872C88.4805 18.016 88.2645 18.168 87.9765 18.328C87.7045 18.488 87.3845 18.64 87.0165 18.784C86.6645 18.928 86.2725 19.048 85.8405 19.144C85.4245 19.24 84.9845 19.288 84.5205 19.288C83.4805 19.288 82.7045 19.016 82.1925 18.472C81.6805 17.928 81.4245 17.048 81.4245 15.832V8.512H79.5045V7.576ZM100.562 16.984C100.434 17.256 100.226 17.536 99.9384 17.824C99.6664 18.096 99.3224 18.344 98.9064 18.568C98.5064 18.776 98.0344 18.944 97.4904 19.072C96.9624 19.216 96.3864 19.288 95.7624 19.288C94.7704 19.288 93.8904 19.144 93.1224 18.856C92.3544 18.552 91.7144 18.128 91.2024 17.584C90.6904 17.024 90.2984 16.36 90.0264 15.592C89.7704 14.824 89.6424 13.96 89.6424 13C89.6424 10.952 90.1784 9.392 91.2504 8.32C92.3224 7.248 93.8104 6.712 95.7144 6.712C96.5304 6.712 97.2904 6.824 97.9944 7.048C98.7144 7.272 99.3064 7.64 99.7704 8.152C100.25 8.664 100.578 9.336 100.754 10.168C100.946 11 100.938 12.016 100.73 13.216H93.3624C93.3784 14.48 93.6984 15.488 94.3224 16.24C94.9624 16.992 95.8984 17.368 97.1304 17.368C97.6584 17.368 98.2024 17.288 98.7624 17.128C99.3384 16.968 99.7864 16.76 100.106 16.504L100.562 16.984ZM95.6184 8.08C95.2984 8.08 95.0104 8.136 94.7544 8.248C94.5144 8.36 94.2984 8.568 94.1064 8.872C93.9304 9.16 93.7864 9.56 93.6744 10.072C93.5624 10.568 93.4824 11.2 93.4344 11.968H97.2984C97.4104 10.72 97.3384 9.76 97.0824 9.088C96.8264 8.416 96.3384 8.08 95.6184 8.08Z" fill="#1E1E1E"/>
</svg>
